<svg width="30" height="54" viewBox="0 0 30 54" fill="none" xmlns="http://www.w3.org/2000/svg">
<path d="M17 2C17 0.895431 16.1046 0 15 0C13.8954 0 13 0.895431 13 2L17 2ZM13.5858 53.4142C14.3668 54.1953 15.6332 54.1953 16.4142 53.4142L29.1421 40.6863C29.9232 39.9052 29.9232 38.6389 29.1421 37.8579C28.3611 37.0768 27.0948 37.0768 26.3137 37.8579L15 49.1716L3.68629 37.8579C2.90524 37.0768 1.63891 37.0768 0.857864 37.8579C0.0768158 38.6389 0.0768158 39.9052 0.857864 40.6863L13.5858 53.4142ZM13 2L13 52H17L17 2L13 2Z" fill="white"/>
</svg>
